<svg xmlns="http://www.w3.org/2000/svg" viewBox="0 0 64 64">
<g id="Layer_49" data-name="Layeasf">
<path d="M58.17,44.55a9.56,9.58,0,0,0-9.75-2.34L35.06,28.85l11-12.5c.55.09,1.31.27,1.67-.31l5.79-8.23a1,1,0,0,0-.09-1.27L51,4a1,1,0,0,0-1.39-.05l-7.32,6.65c-.53.41-.24,1.24-.17,1.78l-11,12.51-9.28-9.28c2.35-6.79-4-13.91-11-12.4A1,1,0,0,0,10,4.26a1.14,1.14,0,0,0,.28.61l4,4L13.1,13.1,8.83,14.24l-4-4a1,1,0,0,0-1.69.51c-1.55,7,5.7,13.41,12.42,11l9.66,9.66-2.45,2.77c-.31-.33-.69-.84-1.21-.8a1,1,0,0,0-.73.34l-1.55,1.77-.86-.89a1,1,0,0,0-1.47,0L4.82,48.5a7.56,7.56,0,0,0-1.21,7.89c1.65,4.42,7.81,5.71,10.88,2L26.66,44.55c.79-.92-.46-1.75-1-2.37l1.67-1.9c.65-.76-.06-1.43-.61-2l2.53-2.86,13,13c-2.36,6.79,4,13.91,11,12.4A1,1,0,0,0,54,59.74a1.14,1.14,0,0,0-.28-.61l-4-4L50.9,50.9l4.27-1.14,4,4a1.29,1.29,0,0,0,.71.3h0a1,1,0,0,0,1-.81A9.59,9.59,0,0,0,58.17,44.55ZM42.53,14.9A1.12,1.12,0,0,0,43.72,16L33.64,27.43l-1.15-1.15ZM5,53.81a5.44,5.44,0,0,1,1.3-4l11.45-13,.85.89h0l.31.31ZM13,57a4.29,4.29,0,0,1-3.57,1.52l14-15.85,1.15,1.2ZM24.27,40.73,20.7,37l.95-1.08.45.46c.44.49,2.73,2.85,3.12,3.27Zm1.06-3.86L24.2,35.69l2.48-2.8L27.83,34Z"/></g></svg>